Coordinates
version=1
nRows=12
nColumns=24
inDegrees=yes

Units are S.I. units (second, meters, Newtons, ...)
Angles are in degrees.

endheader
time	pelvis_tilt	pelvis_list	pelvis_rotation	pelvis_tx	pelvis_ty	pelvis_tz	hip_flexion_r	hip_adduction_r	hip_rotation_r	knee_angle_r	ankle_angle_r	subtalar_angle_r	mtp_angle_r	hip_flexion_l	hip_adduction_l	hip_rotation_l	knee_angle_l	ankle_angle_l	subtalar_angle_l	mtp_angle_l	lumbar_extension	lumbar_bending	lumbar_rotation
      7.34166667	     -3.07163654	    -51.27922918	    -86.20825742	      0.22869272	      1.02911182	      0.36364649	     19.97838843	     -6.44456554	    -15.40402756	    -80.52281050	      0.91076834	     -1.49840647	      0.00000000	     37.71415162	     -2.54095008	     -9.60016727	    -20.04863188	    -17.96552268	     18.65820181	      0.00000000	    -54.57457957	      6.94704656	     -8.99650061
      7.35000000	     -3.06753546	    -51.27541380	    -86.20939460	      0.22867061	      1.02912415	      0.36365817	     19.97943481	     -6.44563558	    -15.41748932	    -80.51271566	      0.91202144	     -1.50102388	      0.00000000	     37.71577031	     -2.54291917	     -9.60192158	    -20.04828070	    -17.96453373	     18.65702106	      0.00000000	    -54.57122448	      6.93877820	     -8.99535686
      7.35833333	     -3.06856987	    -51.27408154	    -86.20886082	      0.22868544	      1.02913199	      0.36366374	     19.97939494	     -6.45068774	    -15.41338668	    -80.51218524	      0.91249940	     -1.50161875	      0.00000000	     37.71632098	     -2.54135657	     -9.60291443	    -20.04907726	    -17.96386244	     18.65753461	      0.00000000	    -54.56942028	      6.94415774	     -8.99516175
      7.36666667	     -3.06786185	    -51.27371900	    -86.20883892	      0.22868961	      1.02912520	      0.36366697	     19.98031080	     -6.44944643	    -15.41450822	    -80.51131634	      0.91260756	     -1.50164733	      0.00000000	     37.71548893	     -2.54045043	     -9.60324397	    -20.04973916	    -17.96372747	     18.65744937	      0.00000000	    -54.56884451	      6.94400022	     -8.99546888
      7.37500000	     -3.06911846	    -51.27280542	    -86.20645146	      0.22868755	      1.02912094	      0.36367838	     19.97742635	     -6.44879428	    -15.41393968	    -80.51411670	      0.91366915	     -1.50133765	      0.00000000	     37.71650419	     -2.54199568	     -9.60270787	    -20.04998831	    -17.96383600	     18.65740825	      0.00000000	    -54.56715946	      6.94293279	     -8.99531480
      7.38333333	     -3.06940416	    -51.27228898	    -86.20620861	      0.22869988	      1.02913459	      0.36367783	     19.97788431	     -6.44851724	    -15.41480491	    -80.51458865	      0.91417103	     -1.50115824	      0.00000000	     37.71583526	     -2.54182715	     -9.60242210	    -20.05082372	    -17.96402945	     18.65766354	      0.00000000	    -54.56710590	      6.94208277	     -8.99526357
      7.39166667	     -3.06851921	    -51.26982059	    -86.20509857	      0.22868202	      1.02915065	      0.36367954	     19.97692826	     -6.44843179	    -15.42091890	    -80.50957292	      0.91660332	     -1.49991681	      0.00000000	     37.71952390	     -2.54237108	     -9.60438668	    -20.05305300	    -17.96364049	     18.65672830	      0.00000000	    -54.56334680	      6.93769014	     -8.99696553
      7.40000000	     -3.06992727	    -51.26467670	    -86.19792039	      0.22870567	      1.02914919	      0.36368637	     19.98004009	     -6.44821710	    -15.41166446	    -80.50566101	      0.92154084	     -1.49205172	      0.00000000	     37.72994338	     -2.53896555	     -9.61184404	    -20.05712771	    -17.96014091	     18.65362456	      0.00000000	    -54.55445595	      6.94896455	     -9.00431967
      7.40833333	     -3.06909372	    -51.26321880	    -86.20092696	      0.22871869	      1.02916688	      0.36370074	     19.97855072	     -6.45006156	    -15.41655484	    -80.50617958	      0.92244896	     -1.49247498	      0.00000000	     37.72855746	     -2.53894333	     -9.61159029	    -20.05816609	    -17.96004225	     18.65371090	      0.00000000	    -54.54717242	      6.94529361	     -9.00480801
      7.41666667	     -3.06918665	    -51.25739074	    -86.19762185	      0.22871501	      1.02917508	      0.36372333	     19.98312255	     -6.45172089	    -15.41588824	    -80.49637895	      0.91948174	     -1.48992801	      0.00000000	     37.73388899	     -2.53865845	     -9.61135149	    -20.05800842	    -17.96011247	     18.65296756	      0.00000000	    -54.53973195	      6.94226787	     -9.00238068
      7.42500000	     -3.06413227	    -51.25210827	    -86.19801616	      0.22870140	      1.02917119	      0.36373111	     19.99315063	     -6.45320187	    -15.42612023	    -80.47988791	      0.91655505	     -1.49566702	      0.00000000	     37.73665316	     -2.53798012	     -9.60857240	    -20.05841806	    -17.96081882	     18.65421775	      0.00000000	    -54.53443519	      6.93458252	     -9.00089413
      7.43333333	     -3.04566564	    -51.23698500	    -86.17422057	      0.22875205	      1.02914727	      0.36377456	     19.99683553	     -6.47691890	    -15.48519635	    -80.49224883	      0.95894302	     -1.59867127	      0.00000000	     37.75232506	     -2.51693018	     -9.60523637	    -20.06306179	    -17.95927059	     18.66567058	      0.00000000	    -54.51160330	      6.93444731	     -9.01548111
